<svg width="38" height="33" viewBox="0 0 38 33" fill="none" xmlns="http://www.w3.org/2000/svg">
<rect x="1.78906" y="2.29407" width="34.0457" height="28.1681" fill="white"/>
<path d="M0.359375 28.1378C0.359375 29.3798 0.852753 30.5709 1.73097 31.4491C2.60919 32.3274 3.80031 32.8207 5.0423 32.8207H33.1399C34.3819 32.8207 35.573 32.3274 36.4512 31.4491C37.3294 30.5709 37.8228 29.3798 37.8228 28.1378V5.50367C37.8228 4.26168 37.3294 3.07056 36.4512 2.19234C35.573 1.31412 34.3819 0.82074 33.1399 0.82074H5.0423C3.80031 0.82074 2.60919 1.31412 1.73097 2.19234C0.852753 3.07056 0.359375 4.26168 0.359375 5.50367L0.359375 28.1378ZM22.9935 4.72318C22.9862 5.00042 22.9031 5.27036 22.7531 5.50367C22.6229 5.73992 22.4317 5.93692 22.1994 6.07411C21.9671 6.21131 21.7023 6.28368 21.4325 6.28368C21.1628 6.28368 20.8979 6.21131 20.6657 6.07411C20.4334 5.93692 20.2422 5.73992 20.112 5.50367C19.962 5.27036 19.8789 5.00042 19.8716 4.72318C19.8786 4.4459 19.9618 4.17589 20.112 3.94269C20.2422 3.70643 20.4334 3.50944 20.6657 3.37224C20.8979 3.23505 21.1628 3.16268 21.4325 3.16268C21.7023 3.16268 21.9671 3.23505 22.1994 3.37224C22.4317 3.50944 22.6229 3.70643 22.7531 3.94269C22.9033 4.17589 22.9865 4.4459 22.9935 4.72318ZM28.4569 4.72318C28.4496 5.00042 28.3665 5.27036 28.2165 5.50367C28.0863 5.73992 27.8951 5.93692 27.6628 6.07411C27.4306 6.21131 27.1657 6.28368 26.896 6.28368C26.6262 6.28368 26.3614 6.21131 26.1291 6.07411C25.8968 5.93692 25.7056 5.73992 25.5754 5.50367C25.4254 5.27036 25.3423 5.00042 25.335 4.72318C25.342 4.4459 25.4252 4.17589 25.5754 3.94269C25.7056 3.70643 25.8968 3.50944 26.1291 3.37224C26.3614 3.23505 26.6262 3.16268 26.896 3.16268C27.1657 3.16268 27.4306 3.23505 27.6628 3.37224C27.8951 3.50944 28.0863 3.70643 28.2165 3.94269C28.3667 4.17589 28.4499 4.4459 28.4569 4.72318ZM33.9203 4.72318C33.9131 5.00042 33.8299 5.27036 33.68 5.50367C33.5497 5.73992 33.3585 5.93692 33.1262 6.07411C32.894 6.21131 32.6291 6.28368 32.3594 6.28368C32.0896 6.28368 31.8248 6.21131 31.5925 6.07411C31.3602 5.93692 31.169 5.73992 31.0388 5.50367C30.8888 5.27036 30.8057 5.00042 30.7984 4.72318C30.8055 4.4459 30.8886 4.17589 31.0388 3.94269C31.1711 3.70817 31.3627 3.51258 31.5946 3.37558C31.8264 3.23858 32.0901 3.16499 32.3594 3.1622C32.6593 3.16356 32.9525 3.25129 33.2038 3.4149C33.4552 3.5785 33.6541 3.81106 33.7767 4.08474C33.8698 4.28481 33.9187 4.50254 33.9203 4.72318ZM3.48133 9.0143C3.48133 8.9108 3.52244 8.81154 3.59563 8.73836C3.66881 8.66517 3.76807 8.62406 3.87157 8.62406H34.3106C34.4141 8.62406 34.5134 8.66517 34.5865 8.73836C34.6597 8.81154 34.7008 8.9108 34.7008 9.0143V28.1363C34.7008 28.5502 34.5364 28.9473 34.2436 29.24C33.9509 29.5328 33.5539 29.6972 33.1399 29.6972H5.0423C4.6283 29.6972 4.23126 29.5328 3.93853 29.24C3.64579 28.9473 3.48133 28.5502 3.48133 28.1363V9.0143Z" fill="#4A3AFF"/>
<path d="M10.9622 23.7782C11.2549 24.0708 11.6519 24.2352 12.0658 24.2352C12.4797 24.2352 12.8767 24.0708 13.1694 23.7782L17.0718 19.8757C17.3645 19.583 17.5289 19.186 17.5289 18.7721C17.5289 18.3582 17.3645 17.9612 17.0718 17.6685L13.1694 13.7661C12.875 13.4817 12.4807 13.3244 12.0714 13.3279C11.6621 13.3315 11.2706 13.4957 10.9812 13.7851C10.6918 14.0745 10.5276 14.466 10.524 14.8753C10.5205 15.2846 10.6778 15.6789 10.9622 15.9733L13.4847 18.4958C13.521 18.5321 13.5499 18.5751 13.5695 18.6225C13.5892 18.67 13.5993 18.7208 13.5993 18.7721C13.5993 18.8234 13.5892 18.8743 13.5695 18.9217C13.5499 18.9691 13.521 19.0122 13.4847 19.0484L10.9622 21.5709C10.6695 21.8637 10.5051 22.2606 10.5051 22.6746C10.5051 23.0885 10.6695 23.4854 10.9622 23.7782Z" fill="#4A3AFF"/>
<path d="M20.652 24.2357H26.8959C27.3099 24.2357 27.707 24.0712 27.9997 23.7785C28.2925 23.4857 28.4569 23.0887 28.4569 22.6747C28.4569 22.2607 28.2925 21.8636 27.9997 21.5709C27.707 21.2782 27.3099 21.1137 26.8959 21.1137H20.652C20.238 21.1137 19.841 21.2782 19.5483 21.5709C19.2555 21.8636 19.0911 22.2607 19.0911 22.6747C19.0911 23.0887 19.2555 23.4857 19.5483 23.7785C19.841 24.0712 20.238 24.2357 20.652 24.2357Z" fill="#4A3AFF"/>
</svg>
