<svg width="39" height="33" viewBox="0 0 39 33" fill="none" xmlns="http://www.w3.org/2000/svg">
<rect x="2.10791" y="2.38605" width="34.0457" height="28.1681" fill="white"/>
<rect x="7.27588" y="10.843" width="23.7094" height="5.66188" rx="0.680278" fill="#4A3AFF"/>
<rect x="7.27588" y="19.2761" width="10.8407" height="7.31969" rx="0.680278" fill="#4A3AFF"/>
<rect x="20.145" y="19.2761" width="10.8407" height="2.30835" rx="0.680278" fill="#4A3AFF"/>
<rect x="20.145" y="24.2878" width="10.8407" height="2.30835" rx="0.680278" fill="#4A3AFF"/>
<path d="M0.679199 28.2298C0.679199 29.4718 1.17258 30.6629 2.0508 31.5411C2.92902 32.4193 4.12014 32.9127 5.36213 32.9127H33.4597C34.7017 32.9127 35.8928 32.4193 36.771 31.5411C37.6492 30.6629 38.1426 29.4718 38.1426 28.2298V5.59565C38.1426 4.35366 37.6492 3.16254 36.771 2.28432C35.8928 1.4061 34.7017 0.91272 33.4597 0.91272H5.36213C4.12014 0.91272 2.92902 1.4061 2.0508 2.28432C1.17258 3.16254 0.679199 4.35366 0.679199 5.59565L0.679199 28.2298ZM23.3133 4.81516C23.3061 5.0924 23.2229 5.36234 23.073 5.59565C22.9427 5.8319 22.7515 6.0289 22.5192 6.16609C22.287 6.30329 22.0221 6.37566 21.7524 6.37566C21.4826 6.37566 21.2178 6.30329 20.9855 6.16609C20.7532 6.0289 20.562 5.8319 20.4318 5.59565C20.2818 5.36234 20.1987 5.0924 20.1914 4.81516C20.1984 4.53788 20.2816 4.26787 20.4318 4.03467C20.562 3.79841 20.7532 3.60142 20.9855 3.46422C21.2178 3.32703 21.4826 3.25466 21.7524 3.25466C22.0221 3.25466 22.287 3.32703 22.5192 3.46422C22.7515 3.60142 22.9427 3.79841 23.073 4.03467C23.2231 4.26787 23.3063 4.53788 23.3133 4.81516ZM28.7768 4.81516C28.7695 5.0924 28.6863 5.36234 28.5364 5.59565C28.4061 5.8319 28.2149 6.0289 27.9827 6.16609C27.7504 6.30329 27.4856 6.37566 27.2158 6.37566C26.946 6.37566 26.6812 6.30329 26.4489 6.16609C26.2166 6.0289 26.0254 5.8319 25.8952 5.59565C25.7452 5.36234 25.6621 5.0924 25.6548 4.81516C25.6619 4.53788 25.745 4.26787 25.8952 4.03467C26.0254 3.79841 26.2166 3.60142 26.4489 3.46422C26.6812 3.32703 26.946 3.25466 27.2158 3.25466C27.4856 3.25466 27.7504 3.32703 27.9827 3.46422C28.2149 3.60142 28.4061 3.79841 28.5364 4.03467C28.6865 4.26787 28.7697 4.53788 28.7768 4.81516ZM34.2402 4.81516C34.2329 5.0924 34.1497 5.36234 33.9998 5.59565C33.8696 5.8319 33.6783 6.0289 33.4461 6.16609C33.2138 6.30329 32.949 6.37566 32.6792 6.37566C32.4094 6.37566 32.1446 6.30329 31.9123 6.16609C31.68 6.0289 31.4888 5.8319 31.3586 5.59565C31.2087 5.36234 31.1255 5.0924 31.1182 4.81516C31.1253 4.53788 31.2084 4.26787 31.3586 4.03467C31.4909 3.80015 31.6826 3.60456 31.9144 3.46756C32.1462 3.33056 32.41 3.25697 32.6792 3.25418C32.9791 3.25554 33.2723 3.34327 33.5236 3.50688C33.775 3.67048 33.9739 3.90304 34.0966 4.17672C34.1896 4.37679 34.2386 4.59452 34.2402 4.81516ZM3.80115 9.10628C3.80115 9.00278 3.84227 8.90352 3.91545 8.83034C3.98864 8.75715 4.0879 8.71604 4.19139 8.71604H34.6304C34.7339 8.71604 34.8332 8.75715 34.9064 8.83034C34.9795 8.90352 35.0207 9.00278 35.0207 9.10628V28.2282C35.0207 28.6422 34.8562 29.0393 34.5635 29.332C34.2707 29.6247 33.8737 29.7892 33.4597 29.7892H5.36213C4.94813 29.7892 4.55109 29.6247 4.25835 29.332C3.96561 29.0393 3.80115 28.6422 3.80115 28.2282V9.10628Z" fill="#4A3AFF"/>
</svg>
