<svg width="40" height="42" viewBox="0 0 40 42" fill="none" xmlns="http://www.w3.org/2000/svg">
<circle cx="20.0274" cy="20.8805" r="8.78843" fill="white"/>
<path d="M21.394 0.446167C22.9577 0.446273 24.3739 1.31457 25.1557 2.59656C25.5361 3.2169 25.7894 3.98251 25.726 4.78894C25.6838 5.4092 25.8743 6.02937 26.2123 6.60828C27.2901 8.36584 29.6779 9.02757 31.5375 8.03503C33.6296 6.83589 36.2715 7.5593 37.476 9.60632L38.8911 12.0468C40.1167 14.0939 39.4407 16.7196 37.3276 17.8983C35.5314 18.9529 34.8974 21.2899 35.975 23.0682C36.3132 23.6266 36.6939 24.102 37.2856 24.3915C38.0252 24.7844 38.596 25.4049 38.9975 26.0253C39.7794 27.3073 39.7153 28.8791 38.9545 30.2645L37.476 32.746C36.6941 34.0694 35.2352 34.8964 33.7348 34.8964C32.9952 34.8963 32.1707 34.6898 31.4946 34.2762C30.9452 33.9248 30.3113 33.8007 29.6352 33.8007C27.5432 33.8008 25.7894 35.5172 25.726 37.5643C25.7258 39.9422 23.7811 41.8026 21.351 41.8026H18.477C16.0259 41.8024 14.0817 39.9421 14.0815 37.5643C14.0392 35.5173 12.2858 33.8008 10.1938 33.8007C9.49642 33.8007 8.86176 33.9247 8.33344 34.2762C7.65739 34.6896 6.81248 34.8963 6.09419 34.8964C4.57271 34.8964 3.11439 34.0693 2.33247 32.746L0.874459 30.2645C0.0925615 28.9204 0.0496042 27.3073 0.83149 26.0253C1.16958 25.405 1.8035 24.7844 2.52192 24.3915C3.11363 24.102 3.4947 23.6266 3.85395 23.0682C4.9104 21.2899 4.27612 18.9529 2.47993 17.8983C0.388079 16.7195 -0.288036 14.0938 0.916451 12.0468L2.33247 9.60632C3.55823 7.55952 6.17837 6.83587 8.29145 8.03503C10.13 9.0276 12.5184 8.36594 13.5961 6.60828C13.9341 6.02942 14.1237 5.40913 14.0815 4.78894C14.0392 3.98249 14.2718 3.21691 14.6733 2.59656C15.4552 1.31449 16.8718 0.487524 18.4145 0.446167H21.394ZM19.936 15.2928C16.6185 15.293 13.9352 17.8982 13.935 21.1444C13.935 24.3908 16.6184 26.9762 19.936 26.9764C23.2538 26.9764 25.8745 24.3909 25.8745 21.1444C25.8742 17.8981 23.2537 15.2928 19.936 15.2928Z" fill="#4A3AFF"/>
</svg>
