<svg width="36" height="29" viewBox="0 0 36 29" fill="none" xmlns="http://www.w3.org/2000/svg">
<path d="M35.2569 12.7659C35.2506 11.6687 34.9064 10.6001 34.2711 9.70542C33.6359 8.81078 32.7404 8.1336 31.7065 7.76604C31.5048 7.69311 31.2884 7.66987 31.0758 7.69829C30.8632 7.72672 30.6606 7.80597 30.4851 7.92933C30.3096 8.0527 30.1664 8.21654 30.0677 8.40698C29.969 8.59742 29.9176 8.80885 29.918 9.02336L29.9367 19.2314C29.9372 19.4454 29.9892 19.6562 30.0883 19.846C30.1873 20.0357 30.3306 20.1988 30.506 20.3216C30.6813 20.4443 30.8836 20.5231 31.0958 20.5513C31.308 20.5794 31.5239 20.5561 31.7252 20.4833C32.7611 20.1107 33.6565 19.4269 34.2887 18.5256C34.921 17.6243 35.2591 16.5497 35.2569 15.4487V12.7659Z" fill="#4A3AFF"/>
<path d="M28.7932 1.3689C28.7932 1.03887 28.6621 0.722353 28.4287 0.488985C28.1953 0.255617 27.8788 0.124512 27.5488 0.124512C27.2188 0.124512 26.9022 0.255617 26.6689 0.488985C26.4355 0.722353 26.3044 1.03887 26.3044 1.3689V2.33206L3.71376 9.62542C3.58858 9.66595 3.47948 9.74511 3.40212 9.85154C3.32475 9.95797 3.28312 10.0862 3.2832 10.2178V17.6306C3.2832 17.763 3.32543 17.8919 3.40376 17.9987C3.48209 18.1054 3.59243 18.1844 3.71874 18.2242L5.33645 18.7319C5.46275 18.7716 5.5731 18.8506 5.65143 18.9573C5.72976 19.0641 5.77199 19.193 5.77198 19.3254V22.5496C5.7802 24.03 6.37359 25.447 7.42269 26.4914C8.47178 27.5358 9.89139 28.1229 11.3717 28.1245H11.3979C12.8816 28.116 14.3015 27.5195 15.3463 26.4659C16.391 25.4122 16.9755 23.9874 16.9715 22.5036V22.3792L26.3044 25.3035V26.2567C26.3044 26.5867 26.4355 26.9032 26.6689 27.1366C26.9022 27.37 27.2188 27.5011 27.5488 27.5011C27.8788 27.5011 28.1953 27.37 28.4287 27.1366C28.6621 26.9032 28.7932 26.5867 28.7932 26.2567V1.3689ZM14.4827 22.5098C14.4847 22.9184 14.4061 23.3233 14.2516 23.7015C14.0971 24.0797 13.8696 24.4237 13.5821 24.714C13.2946 25.0043 12.9527 25.2351 12.5761 25.3932C12.1994 25.5514 11.7952 25.6338 11.3867 25.6357H11.3717C10.5501 25.6357 9.7618 25.3107 9.17895 24.7316C8.5961 24.1525 8.26602 23.3663 8.26076 22.5447V20.4952C8.26075 20.3975 8.28375 20.3011 8.3279 20.214C8.37204 20.1268 8.43608 20.0513 8.51484 19.9935C8.59361 19.9357 8.68487 19.8973 8.78125 19.8813C8.87763 19.8653 8.97642 19.8723 9.06961 19.9016L14.0472 21.4621C14.1735 21.5018 14.2838 21.5808 14.3622 21.6875C14.4405 21.7943 14.4827 21.9232 14.4827 22.0556V22.5098Z" fill="#4A3AFF"/>
<path d="M3.28206 9.643C3.28206 9.30886 3.13715 8.9884 2.87921 8.75213C2.62127 8.51585 2.27143 8.38312 1.90665 8.38312C1.54187 8.38312 1.19203 8.51585 0.934096 8.75213C0.676158 8.9884 0.53125 9.30886 0.53125 9.643L0.538127 18.4621C0.538127 18.6276 0.573703 18.7914 0.642823 18.9443C0.711944 19.0971 0.813255 19.236 0.940973 19.353C1.06869 19.47 1.22031 19.5628 1.38719 19.6261C1.55406 19.6894 1.73291 19.722 1.91353 19.722H1.90665C2.26578 19.7221 2.61071 19.5935 2.86772 19.3638C3.12473 19.134 3.27344 18.8213 3.28206 18.4924V9.643Z" fill="white"/>
</svg>
