<svg width="17" height="28" viewBox="0 0 17 28" fill="none" xmlns="http://www.w3.org/2000/svg">
<path d="M13.4266 0.811583H3.10522C1.83848 0.811583 0.811583 1.83848 0.811583 3.10522V24.8948C0.811583 26.1615 1.83848 27.1884 3.10522 27.1884H13.4266C14.6933 27.1884 15.7202 26.1615 15.7202 24.8948V3.10522C15.7202 1.83848 14.6933 0.811583 13.4266 0.811583Z" stroke="#A0A3BD" stroke-width="1.6" stroke-linecap="round" stroke-linejoin="round"/>
<path d="M12.0227 0.811583V2.31428C12.0227 2.71282 11.8644 3.09504 11.5825 3.37685C11.3007 3.65866 10.9185 3.81698 10.52 3.81698H6.01188C5.61334 3.81698 5.23112 3.65866 4.94931 3.37685C4.6675 3.09504 4.50918 2.71282 4.50918 2.31428V0.811583" stroke="#A0A3BD" stroke-width="1.6" stroke-linecap="round" stroke-linejoin="round"/>
</svg>
