<svg width="17" height="31" viewBox="0 0 17 31" fill="none" xmlns="http://www.w3.org/2000/svg">
<path d="M15.5443 30.1862V6.13448C15.5442 5.87673 15.4631 5.62553 15.3124 5.4164C15.1617 5.20728 14.9491 5.05081 14.7047 4.96913L2.42923 0.877311C2.24465 0.815454 2.048 0.798442 1.85554 0.827683C1.66308 0.856924 1.48035 0.931578 1.32248 1.04547C1.1646 1.15935 1.03612 1.3092 0.947656 1.48261C0.859196 1.65601 0.813304 1.848 0.813777 2.04266V30.1862" stroke="#A0A3BD" stroke-width="1.6" stroke-linecap="round" stroke-linejoin="round"/>
<path d="M10.6324 22.4349V23.6624" stroke="#A0A3BD" stroke-width="1.6" stroke-linecap="round" stroke-linejoin="round"/>
<path d="M10.6324 16.2971V17.5247" stroke="#A0A3BD" stroke-width="1.6" stroke-linecap="round" stroke-linejoin="round"/>
<path d="M10.6324 10.1594V11.387" stroke="#A0A3BD" stroke-width="1.6" stroke-linecap="round" stroke-linejoin="round"/>
<path d="M5.7251 22.4349V23.6624" stroke="#A0A3BD" stroke-width="1.6" stroke-linecap="round" stroke-linejoin="round"/>
<path d="M5.7251 16.2971V17.5247" stroke="#A0A3BD" stroke-width="1.6" stroke-linecap="round" stroke-linejoin="round"/>
<path d="M5.7251 10.1594V11.387" stroke="#A0A3BD" stroke-width="1.6" stroke-linecap="round" stroke-linejoin="round"/>
</svg>
